<svg width="222" height="40" viewBox="0 0 222 40" fill="none" xmlns="http://www.w3.org/2000/svg">
<g clip-path="url(#clip0_2_16)">
<path fill-rule="evenodd" clip-rule="evenodd" d="M55.7221 13.6993C62.9956 13.6993 68.8314 19.6197 68.8314 26.892C68.8314 34.1642 62.9969 40 55.7221 40H14.8676C11.5701 40 8.44056 38.8175 6.07159 36.8705H35.9344C38.4726 36.8705 40.5003 34.7581 40.5003 32.3045C40.5003 29.7662 38.4713 27.7359 35.9344 27.7359H1.08233C1.08233 27.2293 0.997681 26.638 0.997681 26.1314C0.997681 25.6248 1.08233 25.0336 1.08233 24.523H35.9344C38.4726 24.523 40.5003 22.4953 40.5003 19.957C40.5003 17.5034 38.4713 15.3884 35.9344 15.3884H6.07159C8.44056 13.4453 11.5701 12.2589 14.8676 12.2589H35.9344C38.4726 12.2589 40.5003 10.2311 40.5003 7.69286C40.5003 5.15591 38.4713 3.12688 35.9344 3.12688H19.3502C20.2801 1.94173 21.4639 0.842563 22.7324 -0.0026474H41.1762C48.4498 -0.0026474 54.2856 5.83049 54.2856 13.1054V13.7813C54.7922 13.7813 55.2155 13.6966 55.7221 13.6966V13.6993ZM35.3431 30.2741C34.2439 30.2741 33.3961 31.204 33.3961 32.3045C33.3961 33.405 34.2439 34.2502 35.3431 34.2502C36.4423 34.2502 37.3721 33.4023 37.3721 32.3045C37.3721 31.2066 36.4409 30.2741 35.3431 30.2741ZM35.3431 18.0113C34.2439 18.0113 33.3961 18.8565 33.3961 19.957C33.3961 21.0575 34.2439 21.9847 35.3431 21.9847C36.4423 21.9847 37.3721 21.0549 37.3721 19.957C37.3721 18.8592 36.4409 18.0113 35.3431 18.0113ZM35.3431 5.66383C34.2439 5.66383 33.3961 6.59634 33.3961 7.69419C33.3961 8.79204 34.2439 9.72587 35.3431 9.72587C36.4423 9.72587 37.3721 8.79336 37.3721 7.69419C37.3721 6.59502 36.4409 5.66383 35.3431 5.66383Z" fill="url(#paint0_linear_2_16)"/>
<path d="M76.1367 38.5569L79.7292 38.4895V15.9638L76.1367 15.9307V15.0246H88.1204V15.9307L84.6298 15.9638V38.221H87.7858C91.3783 38.221 93.5594 37.4829 94.4655 36.0054C95.103 34.9645 95.439 33.6894 95.8424 30.8694H96.7485C96.513 34.3944 96.345 36.7435 96.2115 39.496C90.8069 39.3955 86.9803 39.3955 83.1867 39.3955C80.4011 39.3955 77.9158 39.4286 76.1367 39.4286V38.5556V38.5569Z" fill="#231815"/>
<path d="M98.0315 38.5225L100.382 38.4895V25.0613L98.2339 25.0944V24.2214C101.49 24.154 102.732 23.986 104.478 23.4833L104.915 23.7519C104.847 24.9939 104.781 26.1354 104.781 27.4779V38.4881L106.929 38.5212V39.4273H98.0328V38.5212L98.0315 38.5225ZM102.664 15.0908C103.973 15.0908 105.047 16.1992 105.047 17.5074C105.047 18.8155 104.041 19.756 102.697 19.756C101.353 19.756 100.381 18.7494 100.381 17.4399C100.381 16.1304 101.354 15.0894 102.664 15.0894V15.0908Z" fill="#231815"/>
<path d="M108.548 15.0577C112.409 14.8567 112.946 14.7561 114.725 13.8487L115.229 14.1503C115.162 15.6952 115.129 17.3724 115.129 19.8234V25.933C116.672 24.355 118.15 23.6844 119.963 23.6844C123.757 23.6844 126.643 27.142 126.643 31.6736C126.643 36.2052 123.554 39.9987 119.627 39.9987C117.848 39.9987 116.807 39.4617 114.928 37.7157L115.028 39.6627L114.524 39.9987C112.577 39.5953 111.905 39.5291 108.548 39.3611V38.5887H110.731V15.8302L108.548 15.8976V15.059V15.0577ZM115.127 36.5424C116.235 37.9524 116.873 38.3215 118.149 38.3215C120.532 38.3215 121.807 36.106 121.807 31.8759C121.807 27.6459 120.666 25.3299 118.35 25.3299C117.376 25.3299 116.503 25.732 115.832 26.3708C115.429 26.7729 115.127 27.2094 115.127 27.8814V36.5424Z" fill="#231815"/>
<path d="M127.911 38.5225L130.194 38.4895C130.262 37.516 130.295 36.643 130.295 35.6364V28.5202C130.295 27.2451 130.262 26.2716 130.194 25.0627L128.079 25.0957V24.1897C130.865 24.1897 132.108 24.0548 134.088 23.5177L134.525 23.8537V27.0428C134.894 26.4383 135.029 26.2042 135.23 25.9013C136.136 24.4913 137.378 23.7188 138.822 23.7188C140.534 23.7188 141.776 24.8934 141.776 26.5719C141.776 27.7464 141.071 28.4858 139.93 28.4858C138.856 28.4858 138.218 27.7808 138.218 26.5388C138.218 26.3378 138.251 26.1698 138.251 25.9343C138.251 25.5309 138.05 25.3642 137.579 25.3642C136.639 25.3642 135.632 26.3708 135.095 27.9488C134.726 28.9554 134.659 29.5943 134.659 32.4473V38.4895L137.143 38.5225V39.4286H127.911V38.5225Z" fill="#231815"/>
<path d="M151.162 27.1433C151.162 25.5322 150.289 24.6262 148.778 24.6262C147.503 24.6262 146.395 25.1632 146.395 25.7677C146.395 26.0031 146.462 26.1367 146.764 26.5057C147.133 26.9422 147.234 27.1433 147.234 27.5798C147.234 28.5533 146.562 29.2583 145.623 29.2583C144.582 29.2583 143.81 28.4197 143.81 27.3443C143.81 25.2293 146.462 23.6857 150.055 23.6857C152.035 23.6857 153.412 24.1897 154.285 25.2637C154.922 26.0362 155.191 27.0758 155.191 28.8893V36.9459C155.191 37.5834 155.56 38.1548 156.164 38.1548C156.634 38.1548 156.836 37.9538 157.642 36.7448L158.347 37.1138C157.239 39.0609 156.131 39.7989 154.385 39.7989C153.344 39.7989 152.338 39.4299 151.868 38.8254C151.633 38.5569 151.399 37.9524 151.298 37.516C149.755 39.1945 148.513 39.8664 146.699 39.8664C144.248 39.8664 142.537 38.3228 142.537 36.2078C142.537 34.0928 144.316 32.2807 147.337 31.5082C148.511 31.2397 149.183 31.1392 151.163 30.9037V27.1446L151.162 27.1433ZM151.129 31.7423C149.752 31.9434 149.149 32.1114 148.477 32.3799C146.966 32.9844 146.161 34.0584 146.161 35.5359C146.161 37.1139 147.067 38.1204 148.444 38.1204C149.719 38.1204 150.458 37.516 151.129 36.3745V31.7423Z" fill="#231815"/>
<path d="M159.601 38.5225L161.884 38.4895C161.951 37.516 161.984 36.643 161.984 35.6364V28.5202C161.984 27.2451 161.951 26.2716 161.884 25.0627L159.769 25.0957V24.1897C162.554 24.1897 163.798 24.0548 165.778 23.5177L166.214 23.8537V27.0428C166.583 26.4383 166.718 26.2042 166.919 25.9013C167.825 24.4913 169.068 23.7188 170.512 23.7188C172.223 23.7188 173.466 24.8934 173.466 26.5719C173.466 27.7464 172.761 28.4858 171.619 28.4858C170.545 28.4858 169.907 27.7808 169.907 26.5388C169.907 26.3378 169.94 26.1698 169.94 25.9343C169.94 25.5309 169.739 25.3642 169.269 25.3642C168.328 25.3642 167.322 26.3708 166.785 27.9488C166.415 28.9554 166.348 29.5943 166.348 32.4473V38.4895L168.832 38.5225V39.4286H159.601V38.5225Z" fill="#231815"/>
<path d="M174.694 38.5225L177.045 38.4895V25.0613L174.897 25.0944V24.2214C178.153 24.154 179.395 23.986 181.141 23.4833L181.578 23.7519C181.51 24.9939 181.444 26.1354 181.444 27.4779V38.4881L183.592 38.5212V39.4273H174.696V38.5212L174.694 38.5225ZM179.326 15.0908C180.636 15.0908 181.71 16.1992 181.71 17.5074C181.71 18.8155 180.703 19.756 179.359 19.756C178.016 19.756 177.043 18.7494 177.043 17.4399C177.043 16.1304 178.017 15.0894 179.326 15.0894V15.0908Z" fill="#231815"/>
<path d="M193.63 27.1433C193.63 25.5322 192.757 24.6262 191.247 24.6262C189.972 24.6262 188.863 25.1632 188.863 25.7677C188.863 26.0031 188.931 26.1367 189.232 26.5057C189.601 26.9422 189.702 27.1433 189.702 27.5798C189.702 28.5533 189.03 29.2583 188.091 29.2583C187.05 29.2583 186.279 28.4197 186.279 27.3443C186.279 25.2293 188.931 23.6857 192.523 23.6857C194.503 23.6857 195.88 24.1897 196.753 25.2637C197.391 26.0362 197.659 27.0758 197.659 28.8893V36.9459C197.659 37.5834 198.028 38.1548 198.633 38.1548C199.102 38.1548 199.305 37.9538 200.11 36.7448L200.815 37.1138C199.707 39.0609 198.6 39.7989 196.854 39.7989C195.813 39.7989 194.806 39.4299 194.337 38.8254C194.101 38.5569 193.867 37.9524 193.766 37.516C192.223 39.1945 190.981 39.8664 189.167 39.8664C186.716 39.8664 185.005 38.3228 185.005 36.2078C185.005 34.0928 186.784 32.2807 189.805 31.5082C190.979 31.2397 191.651 31.1392 193.632 30.9037V27.1446L193.63 27.1433ZM193.597 31.7423C192.22 31.9434 191.617 32.1114 190.945 32.3799C189.435 32.9844 188.629 34.0584 188.629 35.5359C188.629 37.1139 189.535 38.1204 190.912 38.1204C192.187 38.1204 192.927 37.516 193.597 36.3745V31.7423Z" fill="#231815"/>
<path d="M201.901 38.5225L204.252 38.4895V25.0613L202.17 25.0944V24.1884C204.687 24.1884 206.4 24.0204 208.179 23.5164L208.615 23.8524V26.2359C209.992 24.8259 211.837 23.6844 213.583 23.6844C215.598 23.6844 217.008 24.3219 217.846 25.3629C218.619 26.2359 218.853 27.4105 218.853 30.0956V38.4881L221.001 38.5212V39.4273H212.374V38.5212L214.221 38.4881V28.585C214.221 26.974 214.053 26.269 213.549 25.8655C213.145 25.4965 212.676 25.3285 212.172 25.3285C211.366 25.3285 210.393 25.7306 209.62 26.3351C209.083 26.7372 208.68 27.1076 208.68 27.4435V38.4881L210.426 38.5212V39.4273H201.9V38.5212L201.901 38.5225Z" fill="#231815"/>
</g>
<defs>
<linearGradient id="paint0_linear_2_16" x1="34.9145" y1="40" x2="34.9145" y2="-9.53864e-07" gradientUnits="userSpaceOnUse">
<stop stop-color="#ED6A09"/>
<stop offset="1" stop-color="#F9BA00"/>
</linearGradient>
<clipPath id="clip0_2_16">
<rect width="220.005" height="40" fill="white" transform="translate(0.997681)"/>
</clipPath>
</defs>
</svg>
